<?xml version="1.0"?>
<svg xmlns="http://www.w3.org/2000/svg" xmlns:xlink="http://www.w3.org/1999/xlink" xmlns:svgjs="http://svgjs.com/svgjs" version="1.1" width="512" height="512" x="0" y="0" viewBox="0 0 54 57" style="enable-background:new 0 0 512 512" xml:space="preserve" class=""><g><g xmlns="http://www.w3.org/2000/svg" id="Page-1" fill="none" fill-rule="evenodd"><g id="054---Cash" fill="rgb(0,0,0)" fill-rule="nonzero"><path id="Shape" d="m37 12h-3v11c0 1.1045695-.8954305 2-2 2h-10c-1.1045695 0-2-.8954305-2-2v-11h-3c-.4043959-.0000863-.7689341-.2437275-.923678-.6173454-.1547439-.373618-.0692299-.8036603.216678-1.0896546l10-10c.3904999-.39038194 1.0235001-.39038194 1.414 0l10 10c.2859079.2859943.3714219.7160366.216678 1.0896546-.1547439.3736179-.5192821.6172591-.923678.6173454z" fill="#1ec26d" data-original="#000000" style="" class=""/><path id="Shape" d="m13 29c-.5522847 0-1-.4477153-1-1v-13c0-.5522847.4477153-1 1-1s1 .4477153 1 1v13c0 .5522847-.4477153 1-1 1z" fill="#1ec26d" data-original="#000000" style="" class=""/><path id="Shape" d="m7 35c-.55228475 0-1-.4477153-1-1v-13c0-.5522847.44771525-1 1-1s1 .4477153 1 1v13c0 .5522847-.44771525 1-1 1z" fill="#1ec26d" data-original="#000000" style="" class=""/><path id="Shape" d="m41 29c-.5522847 0-1-.4477153-1-1v-13c0-.5522847.4477153-1 1-1s1 .4477153 1 1v13c0 .5522847-.4477153 1-1 1z" fill="#1ec26d" data-original="#000000" style="" class=""/><path id="Shape" d="m47 35c-.5522847 0-1-.4477153-1-1v-13c0-.5522847.4477153-1 1-1s1 .4477153 1 1v13c0 .5522847-.4477153 1-1 1z" fill="#1ec26d" data-original="#000000" style="" class=""/><path id="Shape" d="m54 45.5c0 .856-.958 1.8-2.629 2.6-3.2866201 1.349823-6.8193131 1.9970235-10.371 1.9-3.0636802.0455773-6.1139155-.4142554-9.028-1.361 5.434-.792 10.028-2.885 10.028-6.139v-1.48c6.931.201 12 2.453 12 4.48z" fill="#1ec26d" data-original="#000000" style="" class=""/><path id="Shape" d="m14 38.855c.5543624.4059827 1.1475948.7560266 1.771 1.045 3.554741 1.4782869 7.3802687 2.1937209 11.229 2.1 3.8487313.0937209 7.674259-.6217131 11.229-2.1.6234052-.2889734 1.2166376-.6390173 1.771-1.045v3.645c0 2.124-5.56 4.5-13 4.5s-13-2.376-13-4.5z" fill="#1ec26d" data-original="#000000" style="" class=""/><path id="Shape" d="m27 31c7.44 0 13 2.376 13 4.5 0 .856-.958 1.8-2.629 2.6-3.2866201 1.349823-6.8193131 1.9970235-10.371 1.9-3.5516869.0970235-7.0843799-.550177-10.371-1.9-1.671-.8-2.629-1.744-2.629-2.6 0-3.151 8.733-4.5 13-4.5z" fill="#1ec26d" data-original="#000000" style="" class=""/><path id="Shape" d="m12 41.02v1.48c0 3.253 4.593 5.347 10.027 6.139-2.9137535.9466893-5.9636509 1.406522-9.027 1.361-3.55168694.0970235-7.08437991-.550177-10.371-1.9-1.671-.8-2.629-1.744-2.629-2.6 0-2.027 5.069-4.279 12-4.48z" fill="#1ec26d" data-original="#000000" style="" class=""/><path id="Shape" d="m13 57c-7.44 0-13-2.376-13-4.5v-3.645c.55436243.4059827 1.1475948.7560266 1.771 1.045 3.55474104 1.4782869 7.38026871 2.1937209 11.229 2.1 3.8511097.0950927 7.6792038-.6203753 11.236-2.1.5549662-.2621091 1.0868493-.5705344 1.59-.922h.174v3.522c0 2.124-5.56 4.5-13 4.5z" fill="#1ec26d" data-original="#000000" style="" class=""/><path id="Shape" d="m41 57c-7.44 0-13-2.376-13-4.5v-3.519h.174c.5064665.3529191 1.0416812.6626746 1.6.926 3.5543288 1.4754774 7.3787719 2.188515 11.226 2.093 3.8487313.0937209 7.674259-.6217131 11.229-2.1.6234052-.2889734 1.2166376-.6390173 1.771-1.045v3.645c0 2.124-5.56 4.5-13 4.5z" fill="#1ec26d" data-original="#000000" style="" class=""/></g></g></g></svg>
